HIERARCHY
ROOT Hips
{
	OFFSET 0.000000 0.000000 0.000000
	CHANNELS 6 Xposition Yposition Zposition Xrotation Yrotation Zrotation
	JOINT LeftUpLeg_virtual
	{
		OFFSET 0.000000 0.000000 0.000000
		CHANNELS 3 Xrotation Yrotation Zrotation
		JOINT LeftUpLeg
		{
			OFFSET 10.205400 -3.823500 0.155100
			CHANNELS 3 Xrotation Yrotation Zrotation
			JOINT LeftLeg
			{
				OFFSET 0.708757 -12.982077 0.567790
				CHANNELS 3 Xrotation Yrotation Zrotation
				JOINT LeftFoot
				{
					OFFSET -0.708756 -10.717838 -2.184338
					CHANNELS 3 Xrotation Yrotation Zrotation
					JOINT LeftToeBase
					{
						OFFSET 0.108149 -7.191104 7.560241
						CHANNELS 3 Xrotation Yrotation Zrotation
						JOINT LeftToe_End
						{
							OFFSET 0.070230 0.081724 4.490308
							CHANNELS 3 Xrotation Yrotation Zrotation
							End Site
							{
								OFFSET 0 0 0
							}
						}
					}
				}
			}
		}
	}
	JOINT RightUpLeg_virtual
	{
		OFFSET 0.000000 0.000000 0.000000
		CHANNELS 3 Xrotation Yrotation Zrotation
		JOINT RightUpLeg
		{
			OFFSET -10.205400 -3.823500 0.005500
			CHANNELS 3 Xrotation Yrotation Zrotation
			JOINT RightLeg
			{
				OFFSET -0.708756 -12.982134 0.610632
				CHANNELS 3 Xrotation Yrotation Zrotation
				JOINT RightFoot
				{
					OFFSET 0.708754 -10.717769 -1.945823
					CHANNELS 3 Xrotation Yrotation Zrotation
					JOINT RightToeBase
					{
						OFFSET -0.108140 -7.191069 7.372968
						CHANNELS 3 Xrotation Yrotation Zrotation
						JOINT RightToe_End
						{
							OFFSET -0.070227 0.081735 4.479403
							CHANNELS 3 Xrotation Yrotation Zrotation
							End Site
							{
								OFFSET 0 0 0
							}
						}
					}
				}
			}
		}
	}
	JOINT Spine_virtual
	{
		OFFSET 0.000000 0.000000 0.000000
		CHANNELS 3 Xrotation Yrotation Zrotation
		JOINT Spine
		{
			OFFSET 0.000000 6.876099 0.125700
			CHANNELS 3 Xrotation Yrotation Zrotation
			JOINT Spine1
			{
				OFFSET 0.000000 5.730043 0.104720
				CHANNELS 3 Xrotation Yrotation Zrotation
				JOINT Spine1_split
				{
					OFFSET 0.000000 5.730043 0.104720
					CHANNELS 3 Xrotation Yrotation Zrotation
					JOINT Spine2
					{
						OFFSET 0.000000 5.730043 0.104720
						CHANNELS 3 Xrotation Yrotation Zrotation
						JOINT Neck_virtual
						{
							OFFSET 0.000000 0.000000 0.000000
							CHANNELS 3 Xrotation Yrotation Zrotation
							JOINT Neck
							{
								OFFSET 0.000000 10.314075 0.188496
								CHANNELS 3 Xrotation Yrotation Zrotation
								JOINT Head
								{
									OFFSET 0.000000 7.643700 -2.377400
									CHANNELS 3 Xrotation Yrotation Zrotation
									JOINT HeadTop_End
									{
										OFFSET 0.000000 43.788605 -13.619600
										CHANNELS 3 Xrotation Yrotation Zrotation
										End Site
										{
											OFFSET 0 0 0
										}
									}
								}
							}
						}
						JOINT LeftShoulder_virtual
						{
							OFFSET 0.000000 0.000000 0.000000
							CHANNELS 3 Xrotation Yrotation Zrotation
							JOINT LeftShoulder
							{
								OFFSET 2.196100 4.412489 0.087492
								CHANNELS 3 Xrotation Yrotation Zrotation
								JOINT LeftShoulder_split
								{
									OFFSET 2.196100 4.412489 0.087492
									CHANNELS 3 Xrotation Yrotation Zrotation
									JOINT LeftArm
									{
										OFFSET 8.771219 -2.981674 -0.026999
										CHANNELS 3 Xrotation Yrotation Zrotation
										JOINT LeftForeArm
										{
											OFFSET 8.512804 0.000000 -0.000000
											CHANNELS 3 Xrotation Yrotation Zrotation
											JOINT LeftHand
											{
												OFFSET 18.484802 0.000000 -0.000000
												CHANNELS 3 Xrotation Yrotation Zrotation
												End Site
												{
													OFFSET 0 0 0
												}
											}
										}
									}
								}
							}
						}
						JOINT RightShoulder_virtual
						{
							OFFSET 0.000000 0.000000 0.000000
							CHANNELS 3 Xrotation Yrotation Zrotation
							JOINT RightShoulder
							{
								OFFSET -2.196100 4.412496 0.070690
								CHANNELS 3 Xrotation Yrotation Zrotation
								JOINT RightShoulder_split
								{
									OFFSET -2.196100 4.412496 0.070690
									CHANNELS 3 Xrotation Yrotation Zrotation
									JOINT RightArm
									{
										OFFSET -8.771282 -2.981682 -0.094208
										CHANNELS 3 Xrotation Yrotation Zrotation
										JOINT RightForeArm
										{
											OFFSET -8.494598 0.000000 0.000000
											CHANNELS 3 Xrotation Yrotation Zrotation
											JOINT RightHand
											{
												OFFSET -18.483803 0.000000 0.000001
												CHANNELS 3 Xrotation Yrotation Zrotation
												End Site
												{
													OFFSET 0 0 0
												}
											}
										}
									}
								}
							}
						}
					}
				}
			}
		}
	}
}
MOTION
Frames: 5
Frame Time: 0.03333333
1.277129 32.709007 -4.054321 0.000000 0.000000 0.000000 -1.102769 -19.169262 1.595909 -24.552216 30.739710 17.223919 29.856130 2.448187 6.912904 -4.911785 9.065710 -21.804221 -0.717461 -1.967815 -0.118340 0.000000 0.000000 0.000000 -0.883849 -17.227573 1.669059 -5.816873 -13.340177 -10.539928 23.809686 7.365095 -1.981102 -22.484409 -10.713702 24.228875 7.691925 0.423862 -22.581080 0.000000 0.000000 0.000000 -2.650863 -14.519666 0.613550 -0.841216 0.196259 -0.398410 4.266000 -3.785971 0.520868 0.114456 -0.202269 -0.013173 0.000000 0.000000 0.000000 4.592764 -0.959148 0.940409 -8.303536 21.835213 7.715470 -3.851488 -1.158117 -15.404735 0.000000 0.000000 0.000000 4.430861 -3.402233 0.354374 0.697895 4.040467 3.219593 5.592532 -2.579515 0.551121 -55.882084 -1.779743 -42.211860 38.678443 -69.625118 30.559059 0.000000 0.000000 0.000000 4.590840 -2.971001 1.161994 -5.021386 -4.701758 10.772041 -0.664206 -4.722468 3.951006 -54.389210 56.333139 73.532922 -86.513587 83.920294 85.705828 0.000000 0.000000 0.000000 
1.274185 32.710003 -4.052700 0.000000 0.000000 0.000000 -1.105596 -19.170555 1.590693 -24.561717 30.750024 17.229188 29.847889 2.443087 6.914273 -4.926225 9.071676 -21.811931 -0.728171 -1.964955 -0.127203 0.000000 0.000000 0.000000 -0.889464 -17.228252 1.664759 -5.804933 -13.335685 -10.537271 23.803312 7.366367 -1.983304 -22.491097 -10.711399 24.230834 7.681717 0.423255 -22.585443 0.000000 0.000000 0.000000 -2.661145 -14.501354 0.602672 -0.854759 0.192254 -0.388769 4.267814 -3.785579 0.518443 0.110743 -0.202915 -0.012718 0.000000 0.000000 0.000000 4.592337 -0.960917 0.937736 -8.300857 21.825065 7.729819 -3.867325 -1.170374 -15.401149 0.000000 0.000000 0.000000 4.432020 -3.403307 0.354277 0.689876 4.040467 3.189118 5.622041 -2.554456 0.544273 -55.880879 -1.797608 -42.278297 38.834311 -69.660853 30.708268 0.000000 0.000000 0.000000 4.589463 -2.975705 1.156628 -5.020840 -4.710332 10.786112 -0.651927 -4.713516 3.956518 -54.376396 56.292186 73.535968 -86.870355 83.914400 86.056060 0.000000 0.000000 0.000000 
1.270752 32.711121 -4.051689 0.000000 0.000000 0.000000 -1.112199 -19.158623 1.580322 -24.591415 30.771361 17.247985 29.858042 2.423568 6.912723 -4.929365 9.072216 -21.840225 -0.735460 -1.961465 -0.112897 0.000000 0.000000 0.000000 -0.893251 -17.209141 1.654475 -5.782077 -13.323502 -10.526793 23.788453 7.361687 -1.983192 -22.507589 -10.721028 24.232618 7.687084 0.411741 -22.571035 0.000000 0.000000 0.000000 -2.669447 -14.469418 0.587180 -0.873957 0.184221 -0.374348 4.267632 -3.782843 0.517408 0.109771 -0.201668 -0.013730 0.000000 0.000000 0.000000 4.591619 -0.962172 0.936355 -8.290704 21.813787 7.743869 -3.883336 -1.196353 -15.399662 0.000000 0.000000 0.000000 4.425962 -3.404138 0.353560 0.680528 4.046263 3.134274 5.654309 -2.507839 0.547769 -55.899395 -1.784214 -42.386829 39.004137 -69.695510 30.876461 0.000000 0.000000 0.000000 4.581936 -2.980242 1.153108 -5.016700 -4.725067 10.821277 -0.647589 -4.708264 3.945020 -54.331949 56.264267 73.522731 -87.319707 83.898793 86.499995 0.000000 0.000000 0.000000 
1.267769 32.712166 -4.051264 0.000000 0.000000 0.000000 -1.116815 -19.135267 1.569001 -24.638538 30.795383 17.271810 29.882730 2.395822 6.911953 -4.913001 9.066658 -21.879155 -0.738350 -1.957431 -0.082502 0.000000 0.000000 0.000000 -0.892554 -17.175201 1.642977 -5.757550 -13.308707 -10.513115 23.772830 7.355541 -1.979522 -22.519776 -10.739589 24.246311 7.697952 0.393617 -22.542157 0.000000 0.000000 0.000000 -2.673479 -14.426708 0.571747 -0.894015 0.174334 -0.358452 4.265765 -3.779459 0.517980 0.110191 -0.200300 -0.014890 0.000000 0.000000 0.000000 4.590429 -0.964176 0.936899 -8.274883 21.800330 7.757082 -3.898243 -1.227479 -15.401786 0.000000 0.000000 0.000000 4.414492 -3.405169 0.352001 0.670823 4.050297 3.071623 5.684595 -2.438927 0.567635 -55.924066 -1.728196 -42.518723 39.161737 -69.724907 31.039207 0.000000 0.000000 0.000000 4.570442 -2.984773 1.151208 -5.009458 -4.749686 10.868653 -0.659602 -4.701697 3.918070 -54.260307 56.264650 73.481996 -87.748875 83.878329 86.925605 0.000000 0.000000 0.000000 
1.265878 32.712933 -4.050898 0.000000 0.000000 0.000000 -1.113250 -19.103790 1.561085 -24.697182 30.815935 17.292413 29.908401 2.368015 6.915226 -4.885273 9.057909 -21.907470 -0.746340 -1.952346 -0.044992 0.000000 0.000000 0.000000 -0.884635 -17.135536 1.634375 -5.738258 -13.297595 -10.499322 23.759399 7.352405 -1.973471 -22.527279 -10.763055 24.275442 7.704706 0.373177 -22.504621 0.000000 0.000000 0.000000 -2.669643 -14.380777 0.560245 -0.912292 0.166918 -0.344278 4.262872 -3.776750 0.520591 0.110546 -0.200743 -0.014773 0.000000 0.000000 0.000000 4.588800 -0.967243 0.938712 -8.256392 21.782841 7.768860 -3.913441 -1.256203 -15.407669 0.000000 0.000000 0.000000 4.400004 -3.406963 0.350513 0.662209 4.042439 3.026474 5.714427 -2.364177 0.576965 -55.931459 -1.622851 -42.646236 39.303275 -69.765827 31.196489 0.000000 0.000000 0.000000 4.556763 -2.988872 1.151126 -5.000207 -4.787812 10.918712 -0.685278 -4.694171 3.883103 -54.166706 56.304692 73.406604 -88.142362 83.861992 87.318757 0.000000 0.000000 0.000000 
